<?xml version="1.0" standalone="no"?>
<!DOCTYPE svg PUBLIC "-//W3C//DTD SVG 20010904//EN"
 "http://www.w3.org/TR/2001/REC-SVG-20010904/DTD/svg10.dtd">
<svg version="1.0" xmlns="http://www.w3.org/2000/svg"
 width="396.000000pt" height="125.000000pt" viewBox="0 0 396.000000 125.000000"
 preserveAspectRatio="xMidYMid meet">

<g transform="translate(0.000000,125.000000) scale(0.100000,-0.100000)"
fill="#000000" stroke="none">
<path d="M3580 1043 c-51 -19 -84 -82 -114 -217 -18 -80 -27 -102 -42 -105
-27 -5 -80 -43 -105 -75 -12 -15 -29 -53 -38 -84 -16 -53 -20 -58 -63 -76 -27
-11 -54 -16 -64 -12 -15 6 -11 10 22 25 60 27 94 73 94 127 0 64 -32 94 -98
94 -87 0 -161 -76 -162 -166 0 -25 -6 -47 -15 -54 -12 -10 -15 -9 -15 6 0 10
-16 43 -36 72 -36 51 -36 54 -24 91 15 48 8 61 -33 61 -45 0 -50 -5 -92 -90
-39 -78 -99 -160 -117 -160 -7 0 -8 20 -4 58 3 31 9 85 12 120 l7 62 -40 0
c-22 0 -45 -6 -51 -13 -17 -20 -42 -136 -42 -195 0 -134 94 -175 193 -84 27
25 27 25 27 4 0 -34 35 -62 77 -62 35 0 59 6 148 36 37 13 44 12 80 -6 49 -25
117 -25 171 -1 37 17 43 17 56 4 9 -8 34 -17 57 -20 33 -5 48 -1 71 16 29 21
29 21 40 1 7 -14 21 -20 44 -20 52 0 59 17 43 96 -13 66 -13 68 14 118 72 134
117 292 104 369 -11 64 -56 98 -105 80z m17 -166 c-3 -40 -12 -88 -21 -107
l-16 -35 5 57 c6 69 24 158 32 158 3 0 3 -33 0 -73z m-427 -266 c0 -11 -10
-27 -22 -36 -20 -13 -23 -14 -26 -1 -5 21 16 56 33 56 8 0 15 -9 15 -19z m273
-42 c6 -48 4 -59 -14 -78 -29 -31 -53 -11 -46 36 5 30 45 109 52 101 1 -2 5
-28 8 -59z m-589 -55 c8 -20 8 -19 -21 -28 -26 -8 -28 -4 -13 25 13 23 26 24
34 3z"/>
<path  d="M415 980 c-122 -17 -189 -98 -172 -207 9 -54 51 -90 164 -144 85 -40
103 -52 109 -75 6 -22 2 -32 -20 -51 -22 -19 -39 -23 -90 -23 -79 0 -101 15
-98 65 5 78 -71 105 -107 38 -30 -58 -2 -137 62 -174 37 -21 55 -24 142 -24
88 0 105 3 145 25 83 46 114 158 63 229 -11 15 -62 47 -120 76 -122 60 -133
69 -133 106 0 52 87 83 153 55 36 -14 37 -17 37 -65 0 -39 4 -53 19 -61 53
-28 91 7 91 85 0 46 -4 59 -30 89 -44 50 -118 69 -215 56z"/>
<path fill="#a61c00" d="M1815 890 c3 -5 11 -10 17 -10 28 0 55 -51 184 -351 76 -176 142
-318 147 -316 5 1 66 129 136 282 150 332 166 361 203 377 15 7 28 16 28 20 0
5 -51 8 -112 7 l-113 -1 43 -15 c63 -22 63 -41 2 -180 -28 -65 -65 -151 -83
-190 -17 -40 -34 -73 -38 -73 -11 0 -179 409 -173 424 3 8 25 19 47 25 32 7 3
9 -126 10 -110 1 -166 -2 -162 -9z"/>
<path  d="M2635 869 c-71 -40 -54 -119 26 -119 44 0 67 17 75 55 4 22 1 35 -13
47 -25 23 -64 30 -88 17z"/>
<path d="M1010 710 c-17 -17 -20 -33 -20 -100 0 -74 -2 -83 -26 -107 -15 -15
-29 -22 -34 -17 -5 5 -1 51 11 107 11 54 18 105 15 113 -7 18 -70 19 -83 2 -6
-7 -18 -38 -28 -68 -22 -67 -52 -130 -64 -130 -8 0 3 90 19 148 13 49 4 62
-41 62 -29 0 -41 -5 -50 -22 -22 -41 -39 -123 -39 -190 0 -57 4 -71 26 -97 32
-39 72 -41 105 -7 l23 24 23 -24 c12 -13 32 -24 44 -24 16 0 20 -4 14 -17 -19
-49 -35 -133 -35 -181 0 -46 4 -58 30 -84 26 -25 36 -29 62 -24 65 13 98 69
123 211 8 49 16 89 18 90 38 19 61 24 77 15 30 -16 82 -12 118 10 l34 21 42
-21 c52 -25 118 -25 172 -1 40 18 41 18 52 0 15 -23 55 -25 76 -4 8 8 22 39
30 68 19 62 55 130 56 105 0 -29 22 -67 42 -74 27 -8 74 13 93 42 21 32 19 71
-5 86 -13 9 -18 19 -14 34 18 70 -68 89 -134 30 l-38 -35 4 35 4 35 -43 -3
c-39 -3 -46 -7 -61 -38 -10 -19 -20 -62 -24 -95 -5 -42 -13 -65 -28 -77 -28
-24 -90 -42 -112 -34 -14 5 -7 12 33 31 59 27 83 63 83 125 0 60 -33 90 -98
90 -34 0 -59 -7 -83 -23 -41 -27 -79 -98 -79 -149 0 -27 -6 -41 -22 -52 -33
-23 -40 -20 -25 12 34 67 31 144 -8 186 -32 34 -67 41 -106 22 -29 -14 -34
-14 -49 -1 -23 21 -56 19 -80 -5z m153 -124 c-3 -38 -37 -106 -54 -106 -16 0
-10 104 7 128 25 36 49 24 47 -22z m307 34 c0 -6 -12 -23 -27 -38 -30 -30 -44
-16 -22 24 12 24 49 34 49 14z m-490 -369 c-7 -45 -16 -78 -22 -75 -5 3 -6 20
-3 37 27 144 44 168 25 38z"/>
</g>
</svg>
